<svg viewBox="0 0 512 512" xmlns="http://www.w3.org/2000/svg" role="img" aria-label="Company Profiler app icon: two office buildings on white">
  <rect width="512" height="512" fill="#FFFFFF"/>
  <rect x="124.4" y="132.8" width="134.4" height="246.4" rx="14" fill="#0F120D"/>
  <rect x="267.2" y="197.2" width="120.4" height="182" rx="14" fill="#0F120D"/>
  <rect x="149.6" y="163.6" width="30.8" height="30.8" rx="5.6" fill="#FFFFFF"/>
  <rect x="202.8" y="163.6" width="30.8" height="30.8" rx="5.6" fill="#FFFFFF"/>
  <rect x="149.6" y="219.6" width="30.8" height="30.8" rx="5.6" fill="#FFFFFF"/>
  <rect x="202.8" y="219.6" width="30.8" height="30.8" rx="5.6" fill="#FFFFFF"/>
  <rect x="149.6" y="275.6" width="30.8" height="30.8" rx="5.6" fill="#FFFFFF"/>
  <rect x="202.8" y="275.6" width="30.8" height="30.8" rx="5.6" fill="#FFFFFF"/>
  <rect x="173.4" y="328.8" width="36.4" height="50.4" rx="8.4" fill="#FFFFFF"/>
  <rect x="289.6" y="228" width="28" height="28" rx="5.6" fill="#FFFFFF"/>
  <rect x="337.2" y="228" width="28" height="28" rx="5.6" fill="#FFFFFF"/>
  <rect x="289.6" y="281.2" width="28" height="28" rx="5.6" fill="#FFFFFF"/>
  <rect x="337.2" y="281.2" width="28" height="28" rx="5.6" fill="#FFFFFF"/>
</svg>
