<svg viewBox="0 0 512 512" xmlns="http://www.w3.org/2000/svg" role="img" aria-label="Company Profiler app icon (full-bleed, maskable): a green corporate skyline">
  <rect x="0" y="0" width="512" height="512" rx="0" fill="#1D231C"/>
  <rect x="118" y="350" width="276" height="24" rx="10" fill="#7D9B83"/>
  <rect x="124" y="208" width="54" height="164" rx="12" fill="#7D9B83"/>
  <rect x="194" y="150" width="54" height="222" rx="12" fill="#7D9B83"/>
  <rect x="264" y="168" width="54" height="204" rx="12" fill="#7D9B83"/>
  <rect x="334" y="198" width="54" height="174" rx="12" fill="#7D9B83"/>
  <rect x="134" y="232" width="12" height="12" rx="3" fill="#1D231C"/>
  <rect x="156" y="232" width="12" height="12" rx="3" fill="#1D231C"/>
  <rect x="134" y="262" width="12" height="12" rx="3" fill="#1D231C"/>
  <rect x="156" y="262" width="12" height="12" rx="3" fill="#1D231C"/>
  <rect x="134" y="292" width="12" height="12" rx="3" fill="#1D231C"/>
  <rect x="156" y="292" width="12" height="12" rx="3" fill="#1D231C"/>
  <rect x="134" y="322" width="12" height="12" rx="3" fill="#1D231C"/>
  <rect x="156" y="322" width="12" height="12" rx="3" fill="#1D231C"/>
  <rect x="204" y="174" width="12" height="12" rx="3" fill="#1D231C"/>
  <rect x="226" y="174" width="12" height="12" rx="3" fill="#1D231C"/>
  <rect x="204" y="204" width="12" height="12" rx="3" fill="#1D231C"/>
  <rect x="226" y="204" width="12" height="12" rx="3" fill="#1D231C"/>
  <rect x="204" y="234" width="12" height="12" rx="3" fill="#1D231C"/>
  <rect x="226" y="234" width="12" height="12" rx="3" fill="#1D231C"/>
  <rect x="204" y="264" width="12" height="12" rx="3" fill="#1D231C"/>
  <rect x="226" y="264" width="12" height="12" rx="3" fill="#1D231C"/>
  <rect x="204" y="294" width="12" height="12" rx="3" fill="#1D231C"/>
  <rect x="226" y="294" width="12" height="12" rx="3" fill="#1D231C"/>
  <rect x="204" y="324" width="12" height="12" rx="3" fill="#1D231C"/>
  <rect x="226" y="324" width="12" height="12" rx="3" fill="#1D231C"/>
  <rect x="274" y="192" width="12" height="12" rx="3" fill="#1D231C"/>
  <rect x="296" y="192" width="12" height="12" rx="3" fill="#1D231C"/>
  <rect x="274" y="222" width="12" height="12" rx="3" fill="#1D231C"/>
  <rect x="296" y="222" width="12" height="12" rx="3" fill="#1D231C"/>
  <rect x="274" y="252" width="12" height="12" rx="3" fill="#1D231C"/>
  <rect x="296" y="252" width="12" height="12" rx="3" fill="#1D231C"/>
  <rect x="274" y="282" width="12" height="12" rx="3" fill="#1D231C"/>
  <rect x="296" y="282" width="12" height="12" rx="3" fill="#1D231C"/>
  <rect x="274" y="312" width="12" height="12" rx="3" fill="#1D231C"/>
  <rect x="296" y="312" width="12" height="12" rx="3" fill="#1D231C"/>
  <rect x="344" y="222" width="12" height="12" rx="3" fill="#1D231C"/>
  <rect x="366" y="222" width="12" height="12" rx="3" fill="#1D231C"/>
  <rect x="344" y="252" width="12" height="12" rx="3" fill="#1D231C"/>
  <rect x="366" y="252" width="12" height="12" rx="3" fill="#1D231C"/>
  <rect x="344" y="282" width="12" height="12" rx="3" fill="#1D231C"/>
  <rect x="366" y="282" width="12" height="12" rx="3" fill="#1D231C"/>
  <rect x="344" y="312" width="12" height="12" rx="3" fill="#1D231C"/>
  <rect x="366" y="312" width="12" height="12" rx="3" fill="#1D231C"/>
</svg>
